<svg xmlns="http://www.w3.org/2000/svg" width="334" height="334" viewBox="0 0 334 334" fill="none" role="img" aria-labelledby="title desc">
  <title id="title">Explore Better</title>
  <desc id="desc">Italic EB monogram in acid green and white, drawn from Racing Sans One.</desc>
  <rect width="334" height="334" fill="#18201D"/>
  <path d="M81.4141 103H165.614L162.414 118.2H121.614L113.214 156.8H147.414L144.214 171.8H110.014L100.814 214.6H141.614L138.614 230H54.4141L81.4141 103Z" fill="#C7FF4A"/>
  <path d="M277.6 132C277.6 135.867 277 139.333 275.8 142.4C274.733 145.467 273.2 148.2 271.2 150.6C269.2 153 266.867 155.133 264.2 157C261.533 158.867 258.6 160.6 255.4 162.2C256.867 162.733 258.6 163.6 260.6 164.8C262.6 165.867 264.533 167.4 266.4 169.4C268.267 171.4 269.8 174 271 177.2C272.333 180.267 273 184.067 273 188.6C273 194.6 271.733 200.133 269.2 205.2C266.667 210.267 262.867 214.667 257.8 218.4C252.867 222 246.733 224.867 239.4 227C232.2 229 223.867 230 214.4 230H155L182 103H234.6C239.8 103 244.933 103.4 250 104.2C255.2 104.867 259.8 106.267 263.8 108.4C267.933 110.533 271.267 113.533 273.8 117.4C276.333 121.133 277.6 126 277.6 132ZM223.2 156.2C226.133 156.2 228.6 155.333 230.6 153.6C232.733 151.867 234.467 149.733 235.8 147.2C237.133 144.533 238.133 141.733 238.8 138.8C239.467 135.733 239.8 133 239.8 130.6C239.8 126.733 238.867 123.467 237 120.8C235.267 118 232.467 116.6 228.6 116.6H222.6L214 156.2H223.2ZM208.8 217.4C212.8 217.4 216.133 216.267 218.8 214C221.467 211.733 223.667 208.933 225.4 205.6C227.133 202.267 228.333 198.8 229 195.2C229.8 191.467 230.2 188.2 230.2 185.4C230.2 180.733 229.2 177.067 227.2 174.4C225.333 171.6 222.267 170.2 218 170.2H210.6L200.8 217.4H208.8Z" fill="#FFFFFF"/>
</svg>
